<svg fill="none" height="70" viewBox="0 0 70 70" width="70" xmlns="http://www.w3.org/2000/svg">
  <g clip-path="url(#clip0_173_1592)">
    <path
      d="M49 0H21C9.40202 0 0 9.40202 0 21V49C0 60.598 9.40202 70 21 70H49C60.598 70 70 60.598 70 49V21C70 9.40202 60.598 0 49 0Z"
      fill="#0F2842" style="fill:#0F2842;fill:color(display-p3 0.0588 0.1569 0.2588);fill-opacity:1;"/>
    <path clip-rule="evenodd"
          d="M19.2783 12C14.6158 27.3453 5 58 5 58H25.094L34.6923 27.7921L38.0997 37.7752H58.2389C52.8533 41.6045 47.2781 45.2518 42.0483 49.2933C42.0483 49.2933 44.2691 56.928 44.5898 58L65 57.9685C60.0945 42.6487 55.0707 27.3648 50.3034 12L19.2783 12Z"
          fill="white" fill-opacity="0.87" fill-rule="evenodd" style="fill:white;fill-opacity:0.87;"/>
    <path
      d="M34.6923 27.7921L25.094 58H5C5 58 14.6158 27.3453 19.2783 12L50.3034 12C55.0707 27.3648 60.0945 42.6487 65 57.9685L44.5898 58C44.2691 56.928 42.0483 49.2933 42.0483 49.2933C47.2781 45.2518 52.8533 41.6045 58.2389 37.7752H38.0997L34.6923 27.7921Z"
      fill="white" fill-opacity="0.87" style="fill:white;fill-opacity:0.87;"/>
  </g>
  <defs>
    <clipPath id="clip0_173_1592">
      <rect fill="white" height="70" style="fill:white;fill-opacity:1;" width="70"/>
    </clipPath>
  </defs>
</svg>
