<svg height="140" viewBox="0 0 890 140" width="890" xmlns="http://www.w3.org/2000/svg">
  <path clip-rule="evenodd"
    d="M93.9446 0C79.5946 46.7032 50 140 50 140H111.843L141.384 48.063L151.871 78.4463H213.854C197.278 90.1006 180.12 101.201 164.024 113.501C164.024 113.501 170.859 136.737 171.846 140L234.662 139.904C219.565 93.2785 204.103 46.7623 189.431 5.14036e-05L93.9446 0ZM305.676 46.9678C292.63 77.7968 266.726 140 266.726 140H293.192L299.941 123.878L344.897 124.415L350.619 140H377.585C364.992 108.826 351.775 77.9133 338.635 46.9678H305.676ZM387.573 139.904H411.514L412.042 80.0542L438.508 140H447.166C456.205 119.862 465.104 99.6633 473.964 79.4456L474.492 139.904H498.433V46.9678L461.979 47.0028L442.661 96.4249C442.661 96.4249 428.61 60.2785 423.527 47.0637L387.573 46.9229V139.904ZM517.409 139.904H542.377V111.923H550.798C560.604 111.923 559.066 110.541 569.416 128.654L575.834 139.888C585.322 139.893 594.81 139.904 604.298 139.904C604.298 139.655 600.417 132.395 595.673 124.327C588.368 111.901 587.291 109.521 588.635 108.768C594.68 105.384 599.099 100.767 602.301 94.4912C605.58 88.0667 605.797 87.0454 605.792 78.0475C605.788 69.5893 605.473 67.8615 603.134 63.4565C599.974 57.5036 595.448 53.0377 589.317 49.8239C584.892 47.5035 584.308 47.4625 551.116 47.1687L517.409 46.8689V139.904ZM621.277 139.904H646.245V46.9678H621.277V139.904ZM661.226 69.9181H711.662L661.226 116.92V139.904H705.204H749.181V117.138L697.181 116.92C714.028 100.952 730.926 85.0535 748.116 69.4524L748.116 46.9678H661.226V69.9181ZM764.096 139.904H840V116.92H788.066V103.929H836.005V80.4449H788.565V70.4517H840V46.9678H764.096V139.904ZM334.64 99.9315C334.64 99.9315 317.994 100.047 309.671 99.9315L322.226 69.1886L334.64 99.9315ZM578.408 72.8731C581.781 76.2478 582.305 81.1014 579.699 84.8249C576.779 88.995 572.573 89.9384 556.891 89.9384H542.377V69.9521C542.377 69.9521 552.364 69.952 558.933 69.9521C566.624 69.9522 575.035 69.4984 578.408 72.8731Z"
    fill-rule="evenodd" />
</svg>